<svg xmlns="http://www.w3.org/2000/svg" xmlns:xlink="http://www.w3.org/1999/xlink" width="500" zoomAndPan="magnify" viewBox="0 0 375 374.999991" height="500" preserveAspectRatio="xMidYMid meet" version="1.0"><defs><clipPath id="id1"><path d="M 112 106 L 271 106 L 271 265 L 112 265 Z M 112 106 " clip-rule="nonzero"/></clipPath><clipPath id="id2"><path d="M 68.199219 183.902344 L 164.1875 87.914062 L 288.816406 212.539062 L 192.828125 308.53125 Z M 68.199219 183.902344 " clip-rule="nonzero"/></clipPath><clipPath id="id3"><path d="M 68.199219 183.902344 L 164.1875 87.914062 L 288.816406 212.539062 L 192.828125 308.53125 Z M 68.199219 183.902344 " clip-rule="nonzero"/></clipPath><clipPath id="id4"><path d="M 104 98 L 279 98 L 279 272 L 104 272 Z M 104 98 " clip-rule="nonzero"/></clipPath><clipPath id="id5"><path d="M 68.199219 183.902344 L 164.1875 87.914062 L 288.816406 212.539062 L 192.828125 308.53125 Z M 68.199219 183.902344 " clip-rule="nonzero"/></clipPath><clipPath id="id6"><path d="M 68.199219 183.902344 L 164.1875 87.914062 L 288.816406 212.539062 L 192.828125 308.53125 Z M 68.199219 183.902344 " clip-rule="nonzero"/></clipPath></defs><path fill="rgb(100%, 100%, 100%)" d="M 189.699219 64.988281 C 122.59375 64.988281 68.199219 119.386719 68.199219 186.488281 C 68.199219 253.589844 122.59375 307.988281 189.699219 307.988281 C 256.800781 307.988281 311.199219 253.589844 311.199219 186.488281 C 311.199219 119.386719 256.800781 64.988281 189.699219 64.988281 " fill-opacity="1" fill-rule="nonzero"/><g clip-path="url(#id1)"><g clip-path="url(#id2)"><g clip-path="url(#id3)"><path fill="rgb(10.198975%, 11.759949%, 34.118652%)" d="M 192.75 183.980469 C 171.660156 162.890625 164.710938 133.042969 171.863281 106.183594 C 158.636719 109.703125 146.136719 116.625 135.765625 126.996094 C 104.339844 158.421875 104.371094 209.414062 135.84375 240.886719 C 167.316406 272.359375 218.308594 272.390625 249.734375 240.964844 C 260.105469 230.59375 267.027344 218.09375 270.546875 204.867188 C 243.6875 212.019531 213.839844 205.066406 192.75 183.980469 " fill-opacity="1" fill-rule="nonzero"/></g></g></g><g clip-path="url(#id4)"><g clip-path="url(#id5)"><g clip-path="url(#id6)"><path fill="rgb(10.198975%, 11.759949%, 34.118652%)" d="M 130.441406 121.667969 C 96.132812 155.980469 96.167969 211.84375 130.527344 246.203125 C 164.882812 280.558594 220.75 280.597656 255.058594 246.285156 C 265.980469 235.367188 273.851562 221.714844 277.816406 206.8125 C 278.507812 204.21875 277.761719 201.449219 275.863281 199.550781 C 273.960938 197.648438 271.195312 196.90625 268.601562 197.59375 C 243.464844 204.285156 216.4375 197.03125 198.066406 178.664062 C 179.695312 160.292969 172.441406 133.261719 179.132812 108.128906 C 179.824219 105.535156 179.078125 102.765625 177.179688 100.867188 C 175.277344 98.964844 172.511719 98.21875 169.917969 98.910156 C 155.011719 102.878906 141.363281 110.75 130.441406 121.667969 Z M 135.765625 126.996094 C 146.136719 116.625 158.636719 109.703125 171.863281 106.183594 C 164.710938 133.042969 171.660156 162.890625 192.75 183.980469 C 213.839844 205.066406 243.6875 212.019531 270.546875 204.867188 C 267.027344 218.09375 260.105469 230.59375 249.734375 240.964844 C 218.308594 272.390625 167.316406 272.359375 135.84375 240.886719 C 104.371094 209.414062 104.339844 158.421875 135.765625 126.996094 " fill-opacity="1" fill-rule="nonzero"/></g></g></g></svg>